<mxfile host="app.diagrams.net" modified="2024-01-07T18:37:45.026Z" agent="Mozilla/5.0 (Macintosh; Intel Mac OS X 10_15_7) AppleWebKit/537.36 (KHTML, like Gecko) Chrome/120.0.0.0 Safari/537.36" etag="tMfDkRLD-WyKCFj6GTAD" version="21.4.0" type="device">
  <diagram name="Page-1" id="7_yAN5GCgh0Wpwq6xN8R">
    <mxGraphModel dx="2759" dy="850" grid="1" gridSize="9" guides="1" tooltips="1" connect="1" arrows="1" fold="1" page="1" pageScale="1" pageWidth="1100" pageHeight="1700" math="0" shadow="0">
      <root>
        <mxCell id="0" />
        <mxCell id="1" parent="0" />
        <mxCell id="dhb9E5KWRFXKMUn0GvMP-1" value="User" style="rounded=0;whiteSpace=wrap;html=1;" parent="1" vertex="1">
          <mxGeometry x="-500" y="700" width="120" height="60" as="geometry" />
        </mxCell>
        <mxCell id="dhb9E5KWRFXKMUn0GvMP-2" value="Post" style="rounded=0;whiteSpace=wrap;html=1;" parent="1" vertex="1">
          <mxGeometry x="-780" y="555" width="120" height="60" as="geometry" />
        </mxCell>
        <mxCell id="dhb9E5KWRFXKMUn0GvMP-3" value="Comment" style="rounded=0;whiteSpace=wrap;html=1;" parent="1" vertex="1">
          <mxGeometry x="-500" y="390" width="120" height="60" as="geometry" />
        </mxCell>
        <mxCell id="dhb9E5KWRFXKMUn0GvMP-4" value="creates" style="rhombus;whiteSpace=wrap;html=1;" parent="1" vertex="1">
          <mxGeometry x="-590" y="545" width="80" height="80" as="geometry" />
        </mxCell>
        <mxCell id="dhb9E5KWRFXKMUn0GvMP-5" value="has" style="rhombus;whiteSpace=wrap;html=1;" parent="1" vertex="1">
          <mxGeometry x="-370" y="545" width="80" height="80" as="geometry" />
        </mxCell>
        <mxCell id="dhb9E5KWRFXKMUn0GvMP-6" value="can" style="rhombus;whiteSpace=wrap;html=1;" parent="1" vertex="1">
          <mxGeometry x="-480" y="490" width="80" height="80" as="geometry" />
        </mxCell>
        <mxCell id="dhb9E5KWRFXKMUn0GvMP-7" value="Category" style="rounded=0;whiteSpace=wrap;html=1;" parent="1" vertex="1">
          <mxGeometry x="-1010" y="280" width="120" height="60" as="geometry" />
        </mxCell>
        <mxCell id="dhb9E5KWRFXKMUn0GvMP-8" value="contains" style="rhombus;whiteSpace=wrap;html=1;" parent="1" vertex="1">
          <mxGeometry x="-900" y="380" width="80" height="80" as="geometry" />
        </mxCell>
        <mxCell id="dhb9E5KWRFXKMUn0GvMP-10" value="Profile" style="rounded=0;whiteSpace=wrap;html=1;" parent="1" vertex="1">
          <mxGeometry x="-202.5" y="555" width="120" height="60" as="geometry" />
        </mxCell>
        <mxCell id="dhb9E5KWRFXKMUn0GvMP-11" value="Tag" style="rounded=0;whiteSpace=wrap;html=1;" parent="1" vertex="1">
          <mxGeometry x="-500" y="255" width="120" height="60" as="geometry" />
        </mxCell>
        <mxCell id="dhb9E5KWRFXKMUn0GvMP-12" value="" style="endArrow=none;html=1;rounded=0;exitX=0;exitY=1;exitDx=0;exitDy=0;" parent="1" source="dhb9E5KWRFXKMUn0GvMP-1" target="dhb9E5KWRFXKMUn0GvMP-13" edge="1">
          <mxGeometry width="50" height="50" relative="1" as="geometry">
            <mxPoint x="-510" y="750" as="sourcePoint" />
            <mxPoint x="-320" y="740" as="targetPoint" />
          </mxGeometry>
        </mxCell>
        <mxCell id="dhb9E5KWRFXKMUn0GvMP-13" value="id" style="ellipse;whiteSpace=wrap;html=1;fillColor=#0050ef;fontColor=#ffffff;strokeColor=#001DBC;" parent="1" vertex="1">
          <mxGeometry x="-600" y="780" width="60" height="30" as="geometry" />
        </mxCell>
        <mxCell id="dhb9E5KWRFXKMUn0GvMP-14" value="" style="endArrow=none;html=1;rounded=0;exitX=0.75;exitY=1;exitDx=0;exitDy=0;" parent="1" source="dhb9E5KWRFXKMUn0GvMP-1" target="dhb9E5KWRFXKMUn0GvMP-15" edge="1">
          <mxGeometry width="50" height="50" relative="1" as="geometry">
            <mxPoint x="-390" y="790" as="sourcePoint" />
            <mxPoint x="-320" y="790" as="targetPoint" />
          </mxGeometry>
        </mxCell>
        <mxCell id="dhb9E5KWRFXKMUn0GvMP-15" value="name" style="ellipse;whiteSpace=wrap;html=1;" parent="1" vertex="1">
          <mxGeometry x="-340" y="820" width="50" height="30" as="geometry" />
        </mxCell>
        <mxCell id="dhb9E5KWRFXKMUn0GvMP-16" value="" style="endArrow=none;html=1;rounded=0;" parent="1" source="dhb9E5KWRFXKMUn0GvMP-1" target="dhb9E5KWRFXKMUn0GvMP-17" edge="1">
          <mxGeometry width="50" height="50" relative="1" as="geometry">
            <mxPoint x="-430" y="830" as="sourcePoint" />
            <mxPoint x="-360" y="830" as="targetPoint" />
          </mxGeometry>
        </mxCell>
        <mxCell id="dhb9E5KWRFXKMUn0GvMP-17" value="username" style="ellipse;whiteSpace=wrap;html=1;" parent="1" vertex="1">
          <mxGeometry x="-410" y="828.75" width="65" height="30" as="geometry" />
        </mxCell>
        <mxCell id="dhb9E5KWRFXKMUn0GvMP-18" value="" style="endArrow=none;html=1;rounded=0;exitX=0.25;exitY=1;exitDx=0;exitDy=0;" parent="1" source="dhb9E5KWRFXKMUn0GvMP-1" target="dhb9E5KWRFXKMUn0GvMP-19" edge="1">
          <mxGeometry width="50" height="50" relative="1" as="geometry">
            <mxPoint x="-680" y="830" as="sourcePoint" />
            <mxPoint x="-610" y="830" as="targetPoint" />
          </mxGeometry>
        </mxCell>
        <mxCell id="dhb9E5KWRFXKMUn0GvMP-19" value="email" style="ellipse;whiteSpace=wrap;html=1;" parent="1" vertex="1">
          <mxGeometry x="-550" y="810" width="60" height="30" as="geometry" />
        </mxCell>
        <mxCell id="dhb9E5KWRFXKMUn0GvMP-20" value="" style="endArrow=none;html=1;rounded=0;exitX=0.5;exitY=1;exitDx=0;exitDy=0;" parent="1" source="dhb9E5KWRFXKMUn0GvMP-1" target="dhb9E5KWRFXKMUn0GvMP-21" edge="1">
          <mxGeometry width="50" height="50" relative="1" as="geometry">
            <mxPoint x="-590" y="830" as="sourcePoint" />
            <mxPoint x="-520" y="830" as="targetPoint" />
          </mxGeometry>
        </mxCell>
        <mxCell id="dhb9E5KWRFXKMUn0GvMP-21" value="password" style="ellipse;whiteSpace=wrap;html=1;" parent="1" vertex="1">
          <mxGeometry x="-490" y="828.75" width="70" height="30" as="geometry" />
        </mxCell>
        <mxCell id="dhb9E5KWRFXKMUn0GvMP-22" value="" style="endArrow=none;html=1;rounded=0;exitX=0.5;exitY=0;exitDx=0;exitDy=0;entryX=0.5;entryY=0;entryDx=0;entryDy=0;" parent="1" source="dhb9E5KWRFXKMUn0GvMP-10" target="dhb9E5KWRFXKMUn0GvMP-23" edge="1">
          <mxGeometry width="50" height="50" relative="1" as="geometry">
            <mxPoint x="-160" y="615" as="sourcePoint" />
            <mxPoint x="-112" y="640" as="targetPoint" />
          </mxGeometry>
        </mxCell>
        <mxCell id="dhb9E5KWRFXKMUn0GvMP-23" value="mobile" style="ellipse;whiteSpace=wrap;html=1;" parent="1" vertex="1">
          <mxGeometry x="-125" y="460" width="65" height="25" as="geometry" />
        </mxCell>
        <mxCell id="dhb9E5KWRFXKMUn0GvMP-24" value="" style="endArrow=none;html=1;rounded=0;entryX=0.5;entryY=1;entryDx=0;entryDy=0;exitX=0.25;exitY=0;exitDx=0;exitDy=0;" parent="1" source="dhb9E5KWRFXKMUn0GvMP-10" target="dhb9E5KWRFXKMUn0GvMP-25" edge="1">
          <mxGeometry width="50" height="50" relative="1" as="geometry">
            <mxPoint x="-110" y="615" as="sourcePoint" />
            <mxPoint x="-182" y="640" as="targetPoint" />
          </mxGeometry>
        </mxCell>
        <mxCell id="dhb9E5KWRFXKMUn0GvMP-25" value="id" style="ellipse;whiteSpace=wrap;html=1;fillColor=#0050ef;fontColor=#ffffff;strokeColor=#001DBC;" parent="1" vertex="1">
          <mxGeometry x="-190" y="466.25" width="65" height="25" as="geometry" />
        </mxCell>
        <mxCell id="dhb9E5KWRFXKMUn0GvMP-26" value="" style="endArrow=none;html=1;rounded=0;exitX=0.75;exitY=0;exitDx=0;exitDy=0;entryX=0.5;entryY=0;entryDx=0;entryDy=0;" parent="1" source="dhb9E5KWRFXKMUn0GvMP-10" target="dhb9E5KWRFXKMUn0GvMP-27" edge="1">
          <mxGeometry width="50" height="50" relative="1" as="geometry">
            <mxPoint x="-37.5" y="615" as="sourcePoint" />
            <mxPoint x="-39.5" y="640" as="targetPoint" />
          </mxGeometry>
        </mxCell>
        <mxCell id="dhb9E5KWRFXKMUn0GvMP-27" value="address" style="ellipse;whiteSpace=wrap;html=1;" parent="1" vertex="1">
          <mxGeometry x="-50" y="466.25" width="65" height="25" as="geometry" />
        </mxCell>
        <mxCell id="dhb9E5KWRFXKMUn0GvMP-29" value="" style="endArrow=none;html=1;rounded=0;exitX=1;exitY=0.5;exitDx=0;exitDy=0;entryX=0;entryY=0.5;entryDx=0;entryDy=0;" parent="1" source="dhb9E5KWRFXKMUn0GvMP-10" target="dhb9E5KWRFXKMUn0GvMP-30" edge="1">
          <mxGeometry width="50" height="50" relative="1" as="geometry">
            <mxPoint x="42.5" y="585" as="sourcePoint" />
            <mxPoint x="40.5" y="610" as="targetPoint" />
          </mxGeometry>
        </mxCell>
        <mxCell id="dhb9E5KWRFXKMUn0GvMP-30" value="social media links" style="ellipse;whiteSpace=wrap;html=1;" parent="1" vertex="1">
          <mxGeometry x="27.5" y="565" width="90" height="40" as="geometry" />
        </mxCell>
        <mxCell id="dhb9E5KWRFXKMUn0GvMP-31" value="" style="endArrow=none;html=1;rounded=0;entryX=0;entryY=0.5;entryDx=0;entryDy=0;exitX=1;exitY=0.25;exitDx=0;exitDy=0;" parent="1" source="dhb9E5KWRFXKMUn0GvMP-10" target="dhb9E5KWRFXKMUn0GvMP-32" edge="1">
          <mxGeometry width="50" height="50" relative="1" as="geometry">
            <mxPoint x="-50" y="600" as="sourcePoint" />
            <mxPoint x="53" y="565" as="targetPoint" />
          </mxGeometry>
        </mxCell>
        <mxCell id="dhb9E5KWRFXKMUn0GvMP-32" value="image" style="ellipse;whiteSpace=wrap;html=1;" parent="1" vertex="1">
          <mxGeometry x="25" y="530" width="65" height="25" as="geometry" />
        </mxCell>
        <mxCell id="dhb9E5KWRFXKMUn0GvMP-33" value="" style="endArrow=none;html=1;rounded=0;entryX=0.263;entryY=0.08;entryDx=0;entryDy=0;exitX=1;exitY=1;exitDx=0;exitDy=0;entryPerimeter=0;" parent="1" source="dhb9E5KWRFXKMUn0GvMP-1" target="dhb9E5KWRFXKMUn0GvMP-34" edge="1">
          <mxGeometry width="50" height="50" relative="1" as="geometry">
            <mxPoint x="-350" y="835" as="sourcePoint" />
            <mxPoint x="-247" y="800" as="targetPoint" />
          </mxGeometry>
        </mxCell>
        <mxCell id="dhb9E5KWRFXKMUn0GvMP-34" value="active" style="ellipse;whiteSpace=wrap;html=1;" parent="1" vertex="1">
          <mxGeometry x="-290" y="795" width="65" height="25" as="geometry" />
        </mxCell>
        <mxCell id="dhb9E5KWRFXKMUn0GvMP-36" value="" style="endArrow=none;html=1;rounded=0;exitX=1;exitY=0.5;exitDx=0;exitDy=0;entryX=0;entryY=0.5;entryDx=0;entryDy=0;" parent="1" source="dhb9E5KWRFXKMUn0GvMP-5" target="dhb9E5KWRFXKMUn0GvMP-10" edge="1">
          <mxGeometry width="50" height="50" relative="1" as="geometry">
            <mxPoint x="-220" y="635" as="sourcePoint" />
            <mxPoint x="-170" y="585" as="targetPoint" />
          </mxGeometry>
        </mxCell>
        <mxCell id="dhb9E5KWRFXKMUn0GvMP-37" value="" style="endArrow=none;html=1;rounded=0;exitX=0.75;exitY=0;exitDx=0;exitDy=0;entryX=0;entryY=0.5;entryDx=0;entryDy=0;" parent="1" source="dhb9E5KWRFXKMUn0GvMP-1" target="dhb9E5KWRFXKMUn0GvMP-5" edge="1">
          <mxGeometry width="50" height="50" relative="1" as="geometry">
            <mxPoint x="-464.5" y="675" as="sourcePoint" />
            <mxPoint x="-357.5" y="630" as="targetPoint" />
            <Array as="points">
              <mxPoint x="-410" y="585" />
            </Array>
          </mxGeometry>
        </mxCell>
        <mxCell id="dhb9E5KWRFXKMUn0GvMP-38" value="1" style="text;html=1;strokeColor=none;fillColor=none;align=center;verticalAlign=middle;whiteSpace=wrap;rounded=0;" parent="1" vertex="1">
          <mxGeometry x="-417.5" y="647.5" width="40" height="20" as="geometry" />
        </mxCell>
        <mxCell id="dhb9E5KWRFXKMUn0GvMP-39" value="1" style="text;html=1;strokeColor=none;fillColor=none;align=center;verticalAlign=middle;whiteSpace=wrap;rounded=0;" parent="1" vertex="1">
          <mxGeometry x="-270" y="565" width="40" height="20" as="geometry" />
        </mxCell>
        <mxCell id="dhb9E5KWRFXKMUn0GvMP-40" value="" style="endArrow=none;html=1;rounded=0;entryX=0;entryY=0.5;entryDx=0;entryDy=0;exitX=1;exitY=0.75;exitDx=0;exitDy=0;" parent="1" source="dhb9E5KWRFXKMUn0GvMP-10" target="dhb9E5KWRFXKMUn0GvMP-41" edge="1">
          <mxGeometry width="50" height="50" relative="1" as="geometry">
            <mxPoint x="-40" y="550" as="sourcePoint" />
            <mxPoint x="63" y="530" as="targetPoint" />
          </mxGeometry>
        </mxCell>
        <mxCell id="dhb9E5KWRFXKMUn0GvMP-41" value="user_id" style="ellipse;whiteSpace=wrap;html=1;fillColor=#e1d5e7;strokeColor=#9673a6;" parent="1" vertex="1">
          <mxGeometry x="25" y="612.5" width="65" height="25" as="geometry" />
        </mxCell>
        <mxCell id="dhb9E5KWRFXKMUn0GvMP-42" value="" style="endArrow=none;html=1;rounded=0;entryX=1;entryY=0.5;entryDx=0;entryDy=0;" parent="1" target="dhb9E5KWRFXKMUn0GvMP-4" edge="1">
          <mxGeometry width="50" height="50" relative="1" as="geometry">
            <mxPoint x="-470" y="700" as="sourcePoint" />
            <mxPoint x="-510" y="625" as="targetPoint" />
            <Array as="points">
              <mxPoint x="-470" y="585" />
            </Array>
          </mxGeometry>
        </mxCell>
        <mxCell id="dhb9E5KWRFXKMUn0GvMP-43" value="1" style="text;html=1;strokeColor=none;fillColor=none;align=center;verticalAlign=middle;whiteSpace=wrap;rounded=0;" parent="1" vertex="1">
          <mxGeometry x="-480" y="640" width="40" height="20" as="geometry" />
        </mxCell>
        <mxCell id="dhb9E5KWRFXKMUn0GvMP-46" value="" style="endArrow=none;html=1;rounded=0;entryX=0;entryY=0.5;entryDx=0;entryDy=0;" parent="1" target="dhb9E5KWRFXKMUn0GvMP-4" edge="1">
          <mxGeometry width="50" height="50" relative="1" as="geometry">
            <mxPoint x="-660" y="585" as="sourcePoint" />
            <mxPoint x="-520" y="587.1" as="targetPoint" />
          </mxGeometry>
        </mxCell>
        <mxCell id="dhb9E5KWRFXKMUn0GvMP-47" value="m" style="text;html=1;strokeColor=none;fillColor=none;align=center;verticalAlign=middle;whiteSpace=wrap;rounded=0;" parent="1" vertex="1">
          <mxGeometry x="-640" y="565" width="40" height="20" as="geometry" />
        </mxCell>
        <mxCell id="dhb9E5KWRFXKMUn0GvMP-48" value="" style="endArrow=none;html=1;rounded=0;exitX=0;exitY=0.5;exitDx=0;exitDy=0;entryX=1;entryY=0.5;entryDx=0;entryDy=0;" parent="1" source="dhb9E5KWRFXKMUn0GvMP-2" target="dhb9E5KWRFXKMUn0GvMP-49" edge="1">
          <mxGeometry width="50" height="50" relative="1" as="geometry">
            <mxPoint x="-780" y="610" as="sourcePoint" />
            <mxPoint x="-840" y="640" as="targetPoint" />
          </mxGeometry>
        </mxCell>
        <mxCell id="dhb9E5KWRFXKMUn0GvMP-49" value="id" style="ellipse;whiteSpace=wrap;html=1;fillColor=#0050ef;fontColor=#ffffff;strokeColor=#001DBC;" parent="1" vertex="1">
          <mxGeometry x="-910" y="565" width="60" height="30" as="geometry" />
        </mxCell>
        <mxCell id="dhb9E5KWRFXKMUn0GvMP-52" value="" style="endArrow=none;html=1;rounded=0;exitX=1;exitY=0;exitDx=0;exitDy=0;entryX=0;entryY=0.5;entryDx=0;entryDy=0;" parent="1" source="dhb9E5KWRFXKMUn0GvMP-10" target="dhb9E5KWRFXKMUn0GvMP-53" edge="1">
          <mxGeometry width="50" height="50" relative="1" as="geometry">
            <mxPoint x="-70" y="650" as="sourcePoint" />
            <mxPoint x="20.5" y="660" as="targetPoint" />
          </mxGeometry>
        </mxCell>
        <mxCell id="dhb9E5KWRFXKMUn0GvMP-53" value="about" style="ellipse;whiteSpace=wrap;html=1;" parent="1" vertex="1">
          <mxGeometry y="491.25" width="70" height="30" as="geometry" />
        </mxCell>
        <mxCell id="dhb9E5KWRFXKMUn0GvMP-54" value="" style="endArrow=none;html=1;rounded=0;entryX=1;entryY=0;entryDx=0;entryDy=0;exitX=0;exitY=0.75;exitDx=0;exitDy=0;" parent="1" source="dhb9E5KWRFXKMUn0GvMP-2" target="dhb9E5KWRFXKMUn0GvMP-55" edge="1">
          <mxGeometry width="50" height="50" relative="1" as="geometry">
            <mxPoint x="-780" y="610" as="sourcePoint" />
            <mxPoint x="-820" y="640" as="targetPoint" />
          </mxGeometry>
        </mxCell>
        <mxCell id="dhb9E5KWRFXKMUn0GvMP-55" value="title" style="ellipse;whiteSpace=wrap;html=1;" parent="1" vertex="1">
          <mxGeometry x="-950" y="610" width="60" height="30" as="geometry" />
        </mxCell>
        <mxCell id="dhb9E5KWRFXKMUn0GvMP-56" value="" style="endArrow=none;html=1;rounded=0;exitX=0.25;exitY=1;exitDx=0;exitDy=0;entryX=0.5;entryY=0;entryDx=0;entryDy=0;" parent="1" source="dhb9E5KWRFXKMUn0GvMP-2" target="dhb9E5KWRFXKMUn0GvMP-57" edge="1">
          <mxGeometry width="50" height="50" relative="1" as="geometry">
            <mxPoint x="-700" y="622.5" as="sourcePoint" />
            <mxPoint x="-760" y="652.5" as="targetPoint" />
          </mxGeometry>
        </mxCell>
        <mxCell id="dhb9E5KWRFXKMUn0GvMP-57" value="description" style="ellipse;whiteSpace=wrap;html=1;" parent="1" vertex="1">
          <mxGeometry x="-960" y="647.5" width="70" height="30" as="geometry" />
        </mxCell>
        <mxCell id="dhb9E5KWRFXKMUn0GvMP-58" value="" style="endArrow=none;html=1;rounded=0;entryX=0.5;entryY=0;entryDx=0;entryDy=0;exitX=0.25;exitY=1;exitDx=0;exitDy=0;" parent="1" source="dhb9E5KWRFXKMUn0GvMP-2" target="dhb9E5KWRFXKMUn0GvMP-59" edge="1">
          <mxGeometry width="50" height="50" relative="1" as="geometry">
            <mxPoint x="-760" y="620" as="sourcePoint" />
            <mxPoint x="-680" y="652.5" as="targetPoint" />
          </mxGeometry>
        </mxCell>
        <mxCell id="dhb9E5KWRFXKMUn0GvMP-59" value="image Link" style="ellipse;whiteSpace=wrap;html=1;" parent="1" vertex="1">
          <mxGeometry x="-955" y="687.5" width="70" height="30" as="geometry" />
        </mxCell>
        <mxCell id="dhb9E5KWRFXKMUn0GvMP-60" value="" style="endArrow=none;html=1;rounded=0;exitX=0.5;exitY=1;exitDx=0;exitDy=0;entryX=0.5;entryY=0;entryDx=0;entryDy=0;" parent="1" source="dhb9E5KWRFXKMUn0GvMP-2" target="dhb9E5KWRFXKMUn0GvMP-61" edge="1">
          <mxGeometry width="50" height="50" relative="1" as="geometry">
            <mxPoint x="-650" y="615" as="sourcePoint" />
            <mxPoint x="-610" y="657.5" as="targetPoint" />
          </mxGeometry>
        </mxCell>
        <mxCell id="dhb9E5KWRFXKMUn0GvMP-61" value="video Link" style="ellipse;whiteSpace=wrap;html=1;" parent="1" vertex="1">
          <mxGeometry x="-930" y="727.5" width="70" height="30" as="geometry" />
        </mxCell>
        <mxCell id="dhb9E5KWRFXKMUn0GvMP-62" value="" style="endArrow=none;html=1;rounded=0;entryX=0;entryY=0;entryDx=0;entryDy=0;exitX=0.75;exitY=1;exitDx=0;exitDy=0;" parent="1" source="dhb9E5KWRFXKMUn0GvMP-2" target="dhb9E5KWRFXKMUn0GvMP-63" edge="1">
          <mxGeometry width="50" height="50" relative="1" as="geometry">
            <mxPoint x="-690" y="610" as="sourcePoint" />
            <mxPoint x="-580" y="672.5" as="targetPoint" />
          </mxGeometry>
        </mxCell>
        <mxCell id="dhb9E5KWRFXKMUn0GvMP-63" value="user_id" style="ellipse;whiteSpace=wrap;html=1;fillColor=#e1d5e7;strokeColor=#9673a6;" parent="1" vertex="1">
          <mxGeometry x="-645" y="713.75" width="70" height="30" as="geometry" />
        </mxCell>
        <mxCell id="dhb9E5KWRFXKMUn0GvMP-64" value="" style="endArrow=none;html=1;rounded=0;exitX=0.75;exitY=1;exitDx=0;exitDy=0;entryX=0;entryY=0;entryDx=0;entryDy=0;" parent="1" source="dhb9E5KWRFXKMUn0GvMP-2" target="dhb9E5KWRFXKMUn0GvMP-65" edge="1">
          <mxGeometry width="50" height="50" relative="1" as="geometry">
            <mxPoint x="-660" y="608.75" as="sourcePoint" />
            <mxPoint x="-550" y="671.25" as="targetPoint" />
          </mxGeometry>
        </mxCell>
        <mxCell id="dhb9E5KWRFXKMUn0GvMP-65" value="tag_id" style="ellipse;whiteSpace=wrap;html=1;fillColor=#e1d5e7;strokeColor=#9673a6;" parent="1" vertex="1">
          <mxGeometry x="-620" y="677.5" width="70" height="30" as="geometry" />
        </mxCell>
        <mxCell id="dhb9E5KWRFXKMUn0GvMP-66" value="" style="endArrow=none;html=1;rounded=0;exitX=0.75;exitY=1;exitDx=0;exitDy=0;entryX=0;entryY=0;entryDx=0;entryDy=0;" parent="1" source="dhb9E5KWRFXKMUn0GvMP-2" target="dhb9E5KWRFXKMUn0GvMP-67" edge="1">
          <mxGeometry width="50" height="50" relative="1" as="geometry">
            <mxPoint x="-620" y="540" as="sourcePoint" />
            <mxPoint x="-510" y="602.5" as="targetPoint" />
          </mxGeometry>
        </mxCell>
        <mxCell id="dhb9E5KWRFXKMUn0GvMP-67" value="category_id" style="ellipse;whiteSpace=wrap;html=1;fillColor=#e1d5e7;strokeColor=#9673a6;" parent="1" vertex="1">
          <mxGeometry x="-610" y="642.5" width="70" height="30" as="geometry" />
        </mxCell>
        <mxCell id="dhb9E5KWRFXKMUn0GvMP-68" value="" style="endArrow=none;html=1;rounded=0;exitX=0.5;exitY=0;exitDx=0;exitDy=0;entryX=0.5;entryY=1;entryDx=0;entryDy=0;" parent="1" source="dhb9E5KWRFXKMUn0GvMP-1" target="dhb9E5KWRFXKMUn0GvMP-6" edge="1">
          <mxGeometry width="50" height="50" relative="1" as="geometry">
            <mxPoint x="-485" y="565" as="sourcePoint" />
            <mxPoint x="-435" y="515" as="targetPoint" />
          </mxGeometry>
        </mxCell>
        <mxCell id="dhb9E5KWRFXKMUn0GvMP-69" value="" style="endArrow=none;html=1;rounded=0;entryX=0.5;entryY=1;entryDx=0;entryDy=0;" parent="1" source="dhb9E5KWRFXKMUn0GvMP-6" target="dhb9E5KWRFXKMUn0GvMP-3" edge="1">
          <mxGeometry width="50" height="50" relative="1" as="geometry">
            <mxPoint x="-440.8" y="520" as="sourcePoint" />
            <mxPoint x="-440.8" y="340" as="targetPoint" />
          </mxGeometry>
        </mxCell>
        <mxCell id="dhb9E5KWRFXKMUn0GvMP-70" value="1" style="text;html=1;strokeColor=none;fillColor=none;align=center;verticalAlign=middle;whiteSpace=wrap;rounded=0;" parent="1" vertex="1">
          <mxGeometry x="-437.5" y="570" width="20" height="10" as="geometry" />
        </mxCell>
        <mxCell id="dhb9E5KWRFXKMUn0GvMP-72" value="m" style="text;html=1;strokeColor=none;fillColor=none;align=center;verticalAlign=middle;whiteSpace=wrap;rounded=0;" parent="1" vertex="1">
          <mxGeometry x="-440" y="466.25" width="20" height="10" as="geometry" />
        </mxCell>
        <mxCell id="dhb9E5KWRFXKMUn0GvMP-73" value="has" style="rhombus;whiteSpace=wrap;html=1;" parent="1" vertex="1">
          <mxGeometry x="-630" y="380" width="80" height="80" as="geometry" />
        </mxCell>
        <mxCell id="dhb9E5KWRFXKMUn0GvMP-75" value="" style="endArrow=none;html=1;rounded=0;entryX=0;entryY=1;entryDx=0;entryDy=0;exitX=1;exitY=0;exitDx=0;exitDy=0;" parent="1" source="dhb9E5KWRFXKMUn0GvMP-3" target="dhb9E5KWRFXKMUn0GvMP-76" edge="1">
          <mxGeometry width="50" height="50" relative="1" as="geometry">
            <mxPoint x="-257" y="320" as="sourcePoint" />
            <mxPoint x="-237" y="345" as="targetPoint" />
          </mxGeometry>
        </mxCell>
        <mxCell id="dhb9E5KWRFXKMUn0GvMP-76" value="id" style="ellipse;whiteSpace=wrap;html=1;fillColor=#0050ef;fontColor=#ffffff;strokeColor=#001DBC;" parent="1" vertex="1">
          <mxGeometry x="-310" y="335" width="65" height="32.5" as="geometry" />
        </mxCell>
        <mxCell id="dhb9E5KWRFXKMUn0GvMP-77" value="" style="endArrow=none;html=1;rounded=0;entryX=0;entryY=0.5;entryDx=0;entryDy=0;exitX=1;exitY=0.25;exitDx=0;exitDy=0;" parent="1" source="dhb9E5KWRFXKMUn0GvMP-3" target="dhb9E5KWRFXKMUn0GvMP-78" edge="1">
          <mxGeometry width="50" height="50" relative="1" as="geometry">
            <mxPoint x="-365" y="376.25" as="sourcePoint" />
            <mxPoint x="-222" y="391.25" as="targetPoint" />
          </mxGeometry>
        </mxCell>
        <mxCell id="dhb9E5KWRFXKMUn0GvMP-78" value="description" style="ellipse;whiteSpace=wrap;html=1;" parent="1" vertex="1">
          <mxGeometry x="-300" y="371.25" width="75" height="32.5" as="geometry" />
        </mxCell>
        <mxCell id="dhb9E5KWRFXKMUn0GvMP-79" value="" style="endArrow=none;html=1;rounded=0;entryX=0;entryY=0.5;entryDx=0;entryDy=0;exitX=1;exitY=0.5;exitDx=0;exitDy=0;" parent="1" source="dhb9E5KWRFXKMUn0GvMP-3" target="dhb9E5KWRFXKMUn0GvMP-80" edge="1">
          <mxGeometry width="50" height="50" relative="1" as="geometry">
            <mxPoint x="-377.5" y="396.25" as="sourcePoint" />
            <mxPoint x="-219.5" y="427.5" as="targetPoint" />
          </mxGeometry>
        </mxCell>
        <mxCell id="dhb9E5KWRFXKMUn0GvMP-80" value="post_id" style="ellipse;whiteSpace=wrap;html=1;fillColor=#e1d5e7;strokeColor=#9673a6;" parent="1" vertex="1">
          <mxGeometry x="-295" y="415" width="75" height="32.5" as="geometry" />
        </mxCell>
        <mxCell id="dhb9E5KWRFXKMUn0GvMP-81" value="" style="endArrow=none;html=1;rounded=0;entryX=0;entryY=0.5;entryDx=0;entryDy=0;exitX=1;exitY=0.75;exitDx=0;exitDy=0;" parent="1" source="dhb9E5KWRFXKMUn0GvMP-3" target="dhb9E5KWRFXKMUn0GvMP-82" edge="1">
          <mxGeometry width="50" height="50" relative="1" as="geometry">
            <mxPoint x="-397.5" y="412.5" as="sourcePoint" />
            <mxPoint x="-237" y="465" as="targetPoint" />
          </mxGeometry>
        </mxCell>
        <mxCell id="dhb9E5KWRFXKMUn0GvMP-82" value="user_id" style="ellipse;whiteSpace=wrap;html=1;fillColor=#e1d5e7;strokeColor=#9673a6;" parent="1" vertex="1">
          <mxGeometry x="-305" y="453.75" width="75" height="32.5" as="geometry" />
        </mxCell>
        <mxCell id="dhb9E5KWRFXKMUn0GvMP-83" value="" style="endArrow=none;html=1;rounded=0;entryX=0;entryY=0;entryDx=0;entryDy=0;exitX=1;exitY=1;exitDx=0;exitDy=0;" parent="1" source="dhb9E5KWRFXKMUn0GvMP-3" target="dhb9E5KWRFXKMUn0GvMP-84" edge="1">
          <mxGeometry width="50" height="50" relative="1" as="geometry">
            <mxPoint x="-437.5" y="440" as="sourcePoint" />
            <mxPoint x="-277" y="492.5" as="targetPoint" />
          </mxGeometry>
        </mxCell>
        <mxCell id="dhb9E5KWRFXKMUn0GvMP-84" value="tag_id" style="ellipse;whiteSpace=wrap;html=1;fillColor=#e1d5e7;strokeColor=#9673a6;" parent="1" vertex="1">
          <mxGeometry x="-365" y="480" width="75" height="32.5" as="geometry" />
        </mxCell>
        <mxCell id="dhb9E5KWRFXKMUn0GvMP-87" value="" style="endArrow=none;html=1;rounded=0;entryX=1;entryY=0.5;entryDx=0;entryDy=0;" parent="1" target="dhb9E5KWRFXKMUn0GvMP-8" edge="1">
          <mxGeometry width="50" height="50" relative="1" as="geometry">
            <mxPoint x="-760" y="555" as="sourcePoint" />
            <mxPoint x="-760" y="360" as="targetPoint" />
            <Array as="points">
              <mxPoint x="-760" y="420" />
            </Array>
          </mxGeometry>
        </mxCell>
        <mxCell id="dhb9E5KWRFXKMUn0GvMP-88" value="" style="endArrow=none;html=1;rounded=0;entryX=0;entryY=0.5;entryDx=0;entryDy=0;exitX=0.75;exitY=0;exitDx=0;exitDy=0;" parent="1" source="dhb9E5KWRFXKMUn0GvMP-2" target="dhb9E5KWRFXKMUn0GvMP-73" edge="1">
          <mxGeometry width="50" height="50" relative="1" as="geometry">
            <mxPoint x="-660" y="550" as="sourcePoint" />
            <mxPoint x="-630" y="505" as="targetPoint" />
            <Array as="points">
              <mxPoint x="-690" y="420" />
            </Array>
          </mxGeometry>
        </mxCell>
        <mxCell id="dhb9E5KWRFXKMUn0GvMP-89" value="" style="endArrow=none;html=1;rounded=0;entryX=0.5;entryY=1;entryDx=0;entryDy=0;exitX=0;exitY=0.5;exitDx=0;exitDy=0;" parent="1" source="dhb9E5KWRFXKMUn0GvMP-8" target="dhb9E5KWRFXKMUn0GvMP-7" edge="1">
          <mxGeometry width="50" height="50" relative="1" as="geometry">
            <mxPoint x="-860" y="320" as="sourcePoint" />
            <mxPoint x="-810" y="270" as="targetPoint" />
            <Array as="points">
              <mxPoint x="-950" y="420" />
            </Array>
          </mxGeometry>
        </mxCell>
        <mxCell id="dhb9E5KWRFXKMUn0GvMP-93" value="m" style="text;html=1;strokeColor=none;fillColor=none;align=center;verticalAlign=middle;whiteSpace=wrap;rounded=0;" parent="1" vertex="1">
          <mxGeometry x="-790" y="460" width="30" height="20" as="geometry" />
        </mxCell>
        <mxCell id="dhb9E5KWRFXKMUn0GvMP-94" value="1" style="text;html=1;strokeColor=none;fillColor=none;align=center;verticalAlign=middle;whiteSpace=wrap;rounded=0;" parent="1" vertex="1">
          <mxGeometry x="-690" y="460" width="30" height="20" as="geometry" />
        </mxCell>
        <mxCell id="dhb9E5KWRFXKMUn0GvMP-95" value="1" style="text;html=1;strokeColor=none;fillColor=none;align=center;verticalAlign=middle;whiteSpace=wrap;rounded=0;" parent="1" vertex="1">
          <mxGeometry x="-950" y="370" width="20" height="20" as="geometry" />
        </mxCell>
        <mxCell id="dhb9E5KWRFXKMUn0GvMP-96" value="" style="endArrow=none;html=1;rounded=0;exitX=1;exitY=0.5;exitDx=0;exitDy=0;entryX=0;entryY=0.5;entryDx=0;entryDy=0;" parent="1" source="dhb9E5KWRFXKMUn0GvMP-73" target="dhb9E5KWRFXKMUn0GvMP-3" edge="1">
          <mxGeometry width="50" height="50" relative="1" as="geometry">
            <mxPoint x="-550" y="407.5" as="sourcePoint" />
            <mxPoint x="-500" y="360" as="targetPoint" />
          </mxGeometry>
        </mxCell>
        <mxCell id="dhb9E5KWRFXKMUn0GvMP-98" value="has" style="rhombus;whiteSpace=wrap;html=1;" parent="1" vertex="1">
          <mxGeometry x="-760" y="352.5" width="80" height="70" as="geometry" />
        </mxCell>
        <mxCell id="dhb9E5KWRFXKMUn0GvMP-99" value="" style="endArrow=none;html=1;rounded=0;exitX=0.5;exitY=0;exitDx=0;exitDy=0;" parent="1" source="dhb9E5KWRFXKMUn0GvMP-2" target="dhb9E5KWRFXKMUn0GvMP-98" edge="1">
          <mxGeometry width="50" height="50" relative="1" as="geometry">
            <mxPoint x="-770" y="390" as="sourcePoint" />
            <mxPoint x="-720" y="360" as="targetPoint" />
          </mxGeometry>
        </mxCell>
        <mxCell id="dhb9E5KWRFXKMUn0GvMP-102" value="1" style="text;html=1;strokeColor=none;fillColor=none;align=center;verticalAlign=middle;whiteSpace=wrap;rounded=0;" parent="1" vertex="1">
          <mxGeometry x="-740" y="462.5" width="20" height="17.5" as="geometry" />
        </mxCell>
        <mxCell id="dhb9E5KWRFXKMUn0GvMP-103" value="" style="endArrow=none;html=1;rounded=0;entryX=0.5;entryY=0;entryDx=0;entryDy=0;exitX=0.5;exitY=1;exitDx=0;exitDy=0;" parent="1" source="dhb9E5KWRFXKMUn0GvMP-2" target="dhb9E5KWRFXKMUn0GvMP-104" edge="1">
          <mxGeometry width="50" height="50" relative="1" as="geometry">
            <mxPoint x="-720" y="620" as="sourcePoint" />
            <mxPoint x="-555" y="685" as="targetPoint" />
          </mxGeometry>
        </mxCell>
        <mxCell id="dhb9E5KWRFXKMUn0GvMP-104" value="created_date" style="ellipse;whiteSpace=wrap;html=1;" parent="1" vertex="1">
          <mxGeometry x="-880" y="755" width="80" height="30" as="geometry" />
        </mxCell>
        <mxCell id="dhb9E5KWRFXKMUn0GvMP-105" value="" style="endArrow=none;html=1;rounded=0;exitX=0.5;exitY=1;exitDx=0;exitDy=0;entryX=0.5;entryY=0;entryDx=0;entryDy=0;" parent="1" source="dhb9E5KWRFXKMUn0GvMP-2" target="dhb9E5KWRFXKMUn0GvMP-106" edge="1">
          <mxGeometry width="50" height="50" relative="1" as="geometry">
            <mxPoint x="-620" y="667.5" as="sourcePoint" />
            <mxPoint x="-510" y="710" as="targetPoint" />
          </mxGeometry>
        </mxCell>
        <mxCell id="dhb9E5KWRFXKMUn0GvMP-106" value="last_updated_date" style="ellipse;whiteSpace=wrap;html=1;" parent="1" vertex="1">
          <mxGeometry x="-805" y="762.5" width="115" height="47.5" as="geometry" />
        </mxCell>
        <mxCell id="dhb9E5KWRFXKMUn0GvMP-107" value="" style="endArrow=none;html=1;rounded=0;exitX=0.5;exitY=1;exitDx=0;exitDy=0;entryX=0.5;entryY=0;entryDx=0;entryDy=0;" parent="1" source="dhb9E5KWRFXKMUn0GvMP-2" target="dhb9E5KWRFXKMUn0GvMP-108" edge="1">
          <mxGeometry width="50" height="50" relative="1" as="geometry">
            <mxPoint x="-490" y="631.25" as="sourcePoint" />
            <mxPoint x="-380" y="673.75" as="targetPoint" />
          </mxGeometry>
        </mxCell>
        <mxCell id="dhb9E5KWRFXKMUn0GvMP-108" value="is_live" style="ellipse;whiteSpace=wrap;html=1;" parent="1" vertex="1">
          <mxGeometry x="-700" y="743.75" width="70" height="30" as="geometry" />
        </mxCell>
        <mxCell id="dhb9E5KWRFXKMUn0GvMP-109" value="" style="endArrow=none;html=1;rounded=0;exitX=0.25;exitY=0;exitDx=0;exitDy=0;entryX=0.5;entryY=1;entryDx=0;entryDy=0;" parent="1" source="dhb9E5KWRFXKMUn0GvMP-7" target="dhb9E5KWRFXKMUn0GvMP-110" edge="1">
          <mxGeometry width="50" height="50" relative="1" as="geometry">
            <mxPoint x="-860" y="110" as="sourcePoint" />
            <mxPoint x="-920" y="165" as="targetPoint" />
          </mxGeometry>
        </mxCell>
        <mxCell id="dhb9E5KWRFXKMUn0GvMP-110" value="id" style="ellipse;whiteSpace=wrap;html=1;fillColor=#0050ef;fontColor=#ffffff;strokeColor=#001DBC;" parent="1" vertex="1">
          <mxGeometry x="-1020" y="200" width="60" height="30" as="geometry" />
        </mxCell>
        <mxCell id="dhb9E5KWRFXKMUn0GvMP-111" value="" style="endArrow=none;html=1;rounded=0;exitX=0.562;exitY=0.02;exitDx=0;exitDy=0;entryX=0.5;entryY=1;entryDx=0;entryDy=0;exitPerimeter=0;" parent="1" source="dhb9E5KWRFXKMUn0GvMP-7" target="dhb9E5KWRFXKMUn0GvMP-112" edge="1">
          <mxGeometry width="50" height="50" relative="1" as="geometry">
            <mxPoint x="-825" y="150" as="sourcePoint" />
            <mxPoint x="-855" y="155" as="targetPoint" />
          </mxGeometry>
        </mxCell>
        <mxCell id="dhb9E5KWRFXKMUn0GvMP-112" value="category_name" style="ellipse;whiteSpace=wrap;html=1;" parent="1" vertex="1">
          <mxGeometry x="-940" y="200" width="100" height="30" as="geometry" />
        </mxCell>
        <mxCell id="dhb9E5KWRFXKMUn0GvMP-116" value="Post-Tag" style="rounded=0;whiteSpace=wrap;html=1;" parent="1" vertex="1">
          <mxGeometry x="-780" y="255" width="120" height="60" as="geometry" />
        </mxCell>
        <mxCell id="dhb9E5KWRFXKMUn0GvMP-117" value="has" style="rhombus;whiteSpace=wrap;html=1;" parent="1" vertex="1">
          <mxGeometry x="-630" y="250" width="80" height="70" as="geometry" />
        </mxCell>
        <mxCell id="dhb9E5KWRFXKMUn0GvMP-119" value="" style="endArrow=none;html=1;rounded=0;exitX=1;exitY=0.5;exitDx=0;exitDy=0;entryX=0;entryY=0.5;entryDx=0;entryDy=0;" parent="1" source="dhb9E5KWRFXKMUn0GvMP-116" target="dhb9E5KWRFXKMUn0GvMP-117" edge="1">
          <mxGeometry width="50" height="50" relative="1" as="geometry">
            <mxPoint x="-760" y="200" as="sourcePoint" />
            <mxPoint x="-710" y="150" as="targetPoint" />
          </mxGeometry>
        </mxCell>
        <mxCell id="dhb9E5KWRFXKMUn0GvMP-120" value="" style="endArrow=none;html=1;rounded=0;entryX=0;entryY=0.5;entryDx=0;entryDy=0;exitX=1;exitY=0.5;exitDx=0;exitDy=0;" parent="1" source="dhb9E5KWRFXKMUn0GvMP-117" target="dhb9E5KWRFXKMUn0GvMP-11" edge="1">
          <mxGeometry width="50" height="50" relative="1" as="geometry">
            <mxPoint x="-630" y="150" as="sourcePoint" />
            <mxPoint x="-600" y="149.6" as="targetPoint" />
          </mxGeometry>
        </mxCell>
        <mxCell id="dhb9E5KWRFXKMUn0GvMP-121" value="m" style="text;html=1;strokeColor=none;fillColor=none;align=center;verticalAlign=middle;whiteSpace=wrap;rounded=0;" parent="1" vertex="1">
          <mxGeometry x="-650" y="260" width="20" height="20" as="geometry" />
        </mxCell>
        <mxCell id="dhb9E5KWRFXKMUn0GvMP-122" value="1" style="text;html=1;strokeColor=none;fillColor=none;align=center;verticalAlign=middle;whiteSpace=wrap;rounded=0;" parent="1" vertex="1">
          <mxGeometry x="-540" y="260" width="20" height="20" as="geometry" />
        </mxCell>
        <mxCell id="dhb9E5KWRFXKMUn0GvMP-123" value="m" style="text;html=1;strokeColor=none;fillColor=none;align=center;verticalAlign=middle;whiteSpace=wrap;rounded=0;" parent="1" vertex="1">
          <mxGeometry x="-540" y="395" width="30" height="20" as="geometry" />
        </mxCell>
        <mxCell id="dhb9E5KWRFXKMUn0GvMP-125" value="m" style="text;html=1;strokeColor=none;fillColor=none;align=center;verticalAlign=middle;whiteSpace=wrap;rounded=0;" parent="1" vertex="1">
          <mxGeometry x="-720" y="332.5" width="20" height="20" as="geometry" />
        </mxCell>
        <mxCell id="dhb9E5KWRFXKMUn0GvMP-127" value="" style="endArrow=none;html=1;rounded=0;exitX=0.5;exitY=0;exitDx=0;exitDy=0;entryX=0.5;entryY=1;entryDx=0;entryDy=0;" parent="1" source="dhb9E5KWRFXKMUn0GvMP-98" target="dhb9E5KWRFXKMUn0GvMP-116" edge="1">
          <mxGeometry width="50" height="50" relative="1" as="geometry">
            <mxPoint x="-772.5" y="367.5" as="sourcePoint" />
            <mxPoint x="-722.5" y="317.5" as="targetPoint" />
          </mxGeometry>
        </mxCell>
        <mxCell id="dhb9E5KWRFXKMUn0GvMP-130" value="" style="endArrow=none;html=1;rounded=0;exitX=0.25;exitY=0;exitDx=0;exitDy=0;entryX=0.5;entryY=1;entryDx=0;entryDy=0;" parent="1" source="dhb9E5KWRFXKMUn0GvMP-11" target="dhb9E5KWRFXKMUn0GvMP-131" edge="1">
          <mxGeometry width="50" height="50" relative="1" as="geometry">
            <mxPoint x="-480" y="255" as="sourcePoint" />
            <mxPoint x="-420" y="140" as="targetPoint" />
          </mxGeometry>
        </mxCell>
        <mxCell id="dhb9E5KWRFXKMUn0GvMP-131" value="id" style="ellipse;whiteSpace=wrap;html=1;fillColor=#0050ef;fontColor=#ffffff;strokeColor=#001DBC;" parent="1" vertex="1">
          <mxGeometry x="-520" y="175" width="60" height="30" as="geometry" />
        </mxCell>
        <mxCell id="dhb9E5KWRFXKMUn0GvMP-132" value="" style="endArrow=none;html=1;rounded=0;exitX=0.25;exitY=0;exitDx=0;exitDy=0;entryX=0.5;entryY=1;entryDx=0;entryDy=0;" parent="1" source="dhb9E5KWRFXKMUn0GvMP-116" target="dhb9E5KWRFXKMUn0GvMP-133" edge="1">
          <mxGeometry width="50" height="50" relative="1" as="geometry">
            <mxPoint x="-950" y="310" as="sourcePoint" />
            <mxPoint x="-890" y="195" as="targetPoint" />
          </mxGeometry>
        </mxCell>
        <mxCell id="dhb9E5KWRFXKMUn0GvMP-133" value="post_id" style="ellipse;whiteSpace=wrap;html=1;fillColor=#0050ef;strokeColor=#001DBC;fontColor=#ffffff;" parent="1" vertex="1">
          <mxGeometry x="-790" y="175" width="60" height="30" as="geometry" />
        </mxCell>
        <mxCell id="dhb9E5KWRFXKMUn0GvMP-134" value="" style="endArrow=none;html=1;rounded=0;exitX=0.75;exitY=0;exitDx=0;exitDy=0;entryX=0.5;entryY=1;entryDx=0;entryDy=0;" parent="1" source="dhb9E5KWRFXKMUn0GvMP-116" target="dhb9E5KWRFXKMUn0GvMP-135" edge="1">
          <mxGeometry width="50" height="50" relative="1" as="geometry">
            <mxPoint x="-630" y="255" as="sourcePoint" />
            <mxPoint x="-570" y="140" as="targetPoint" />
          </mxGeometry>
        </mxCell>
        <mxCell id="dhb9E5KWRFXKMUn0GvMP-135" value="tag_id" style="ellipse;whiteSpace=wrap;html=1;fillColor=#0050ef;fontColor=#ffffff;strokeColor=#001DBC;" parent="1" vertex="1">
          <mxGeometry x="-695" y="175" width="60" height="30" as="geometry" />
        </mxCell>
        <mxCell id="dhb9E5KWRFXKMUn0GvMP-136" value="" style="endArrow=none;html=1;rounded=0;exitX=0.5;exitY=0;exitDx=0;exitDy=0;entryX=0.5;entryY=1;entryDx=0;entryDy=0;" parent="1" source="dhb9E5KWRFXKMUn0GvMP-11" target="dhb9E5KWRFXKMUn0GvMP-137" edge="1">
          <mxGeometry width="50" height="50" relative="1" as="geometry">
            <mxPoint x="-443" y="255" as="sourcePoint" />
            <mxPoint x="-355" y="129" as="targetPoint" />
          </mxGeometry>
        </mxCell>
        <mxCell id="dhb9E5KWRFXKMUn0GvMP-137" value="tag_name" style="ellipse;whiteSpace=wrap;html=1;" parent="1" vertex="1">
          <mxGeometry x="-440" y="174" width="60" height="30" as="geometry" />
        </mxCell>
        <mxCell id="dhb9E5KWRFXKMUn0GvMP-139" value="Role" style="rounded=0;whiteSpace=wrap;html=1;" parent="1" vertex="1">
          <mxGeometry x="-160" y="755" width="120" height="60" as="geometry" />
        </mxCell>
        <mxCell id="dhb9E5KWRFXKMUn0GvMP-140" value="has" style="rhombus;whiteSpace=wrap;html=1;" parent="1" vertex="1">
          <mxGeometry x="-245" y="675" width="80" height="80" as="geometry" />
        </mxCell>
        <mxCell id="dhb9E5KWRFXKMUn0GvMP-142" value="" style="endArrow=none;html=1;rounded=0;entryX=1;entryY=0.5;entryDx=0;entryDy=0;exitX=0.5;exitY=0;exitDx=0;exitDy=0;" parent="1" source="dhb9E5KWRFXKMUn0GvMP-139" target="dhb9E5KWRFXKMUn0GvMP-140" edge="1">
          <mxGeometry width="50" height="50" relative="1" as="geometry">
            <mxPoint x="-130" y="795" as="sourcePoint" />
            <mxPoint x="-170" y="680" as="targetPoint" />
            <Array as="points">
              <mxPoint x="-100" y="715" />
            </Array>
          </mxGeometry>
        </mxCell>
        <mxCell id="dhb9E5KWRFXKMUn0GvMP-143" value="" style="endArrow=none;html=1;rounded=0;exitX=1;exitY=0.25;exitDx=0;exitDy=0;entryX=0;entryY=0.5;entryDx=0;entryDy=0;" parent="1" source="dhb9E5KWRFXKMUn0GvMP-1" target="dhb9E5KWRFXKMUn0GvMP-140" edge="1">
          <mxGeometry width="50" height="50" relative="1" as="geometry">
            <mxPoint x="-358" y="719.6" as="sourcePoint" />
            <mxPoint x="-270" y="719.6" as="targetPoint" />
          </mxGeometry>
        </mxCell>
        <mxCell id="dhb9E5KWRFXKMUn0GvMP-144" value="" style="endArrow=none;html=1;rounded=0;entryX=0.5;entryY=0;entryDx=0;entryDy=0;exitX=0.5;exitY=1;exitDx=0;exitDy=0;" parent="1" source="dhb9E5KWRFXKMUn0GvMP-139" target="dhb9E5KWRFXKMUn0GvMP-145" edge="1">
          <mxGeometry width="50" height="50" relative="1" as="geometry">
            <mxPoint x="-62" y="755" as="sourcePoint" />
            <mxPoint x="-72" y="840" as="targetPoint" />
          </mxGeometry>
        </mxCell>
        <mxCell id="dhb9E5KWRFXKMUn0GvMP-145" value="id" style="ellipse;whiteSpace=wrap;html=1;fillColor=#0050ef;fontColor=#ffffff;strokeColor=#001DBC;" parent="1" vertex="1">
          <mxGeometry x="-175" y="858.75" width="65" height="25" as="geometry" />
        </mxCell>
        <mxCell id="dhb9E5KWRFXKMUn0GvMP-146" value="" style="endArrow=none;html=1;rounded=0;exitX=0.5;exitY=1;exitDx=0;exitDy=0;" parent="1" source="dhb9E5KWRFXKMUn0GvMP-139" target="dhb9E5KWRFXKMUn0GvMP-147" edge="1">
          <mxGeometry width="50" height="50" relative="1" as="geometry">
            <mxPoint x="-40" y="815" as="sourcePoint" />
            <mxPoint x="-180" y="885" as="targetPoint" />
          </mxGeometry>
        </mxCell>
        <mxCell id="dhb9E5KWRFXKMUn0GvMP-147" value="role_name" style="ellipse;whiteSpace=wrap;html=1;" parent="1" vertex="1">
          <mxGeometry x="-90" y="853.75" width="70" height="35" as="geometry" />
        </mxCell>
        <mxCell id="dhb9E5KWRFXKMUn0GvMP-148" value="m" style="text;html=1;strokeColor=none;fillColor=none;align=center;verticalAlign=middle;whiteSpace=wrap;rounded=0;" parent="1" vertex="1">
          <mxGeometry x="-350" y="691.25" width="25" height="22.5" as="geometry" />
        </mxCell>
        <mxCell id="dhb9E5KWRFXKMUn0GvMP-149" value="1" style="text;html=1;strokeColor=none;fillColor=none;align=center;verticalAlign=middle;whiteSpace=wrap;rounded=0;" parent="1" vertex="1">
          <mxGeometry x="-100" y="727.5" width="30" height="16.25" as="geometry" />
        </mxCell>
      </root>
    </mxGraphModel>
  </diagram>
</mxfile>
